<?xml version="1.0" encoding="UTF-8" standalone="no"?>
<!DOCTYPE svg PUBLIC "-//W3C//DTD SVG 1.1//EN" "http://www.w3.org/Graphics/SVG/1.1/DTD/svg11.dtd">
<svg width="100%" height="100%" viewBox="0 0 1000 1000" version="1.1" xmlns="http://www.w3.org/2000/svg" xmlns:xlink="http://www.w3.org/1999/xlink" xml:space="preserve" xmlns:serif="http://www.serif.com/" style="fill-rule:evenodd;clip-rule:evenodd;stroke-linejoin:round;stroke-miterlimit:2;">
    <path d="M417.988,292.869C412.693,285.693 407.108,278.945 401.093,272.93C396.002,267.839 391.394,270.394 390.049,271.279C389.68,271.522 389.297,271.808 388.926,272.147C387.471,269.632 385.8,266.93 383.67,263.664C381.415,260.206 378.026,252.395 375.373,248.807C373.627,246.445 371.716,245.091 370.272,244.481C367.761,243.42 365.407,243.545 363.255,244.471C361.456,245.244 359.197,246.809 357.948,250.555C357.553,251.741 357.175,253.689 358.026,256.255C358.531,257.777 360.296,260.963 363.173,265.081C366.472,269.802 371.374,276.255 376.717,283.091C380.014,289.151 382.464,294.889 388.249,306.722C393.295,317.043 398.225,327.384 403.184,337.704C401.806,335.946 400.418,334.203 399.017,332.472C392.737,324.708 385.434,315.824 377.694,309.374C375.769,307.77 371.744,304.251 369.38,302.876C367.268,301.647 365.375,301.318 364.187,301.309C361.056,301.284 358.868,302.652 357.36,304.696C356.361,306.05 355.07,308.391 356.018,312.184C357.123,316.603 360.319,322.801 364.764,329.918C362.359,327.857 354.364,321.372 348.679,316.265C348.653,313.382 347.063,310.61 344.319,309.209C339.558,306.779 336.592,306.843 335.563,307.019C332.514,307.54 330.786,309.226 329.727,311.125C328.876,312.649 328.302,314.664 328.942,317.216C329.226,318.348 330.624,321.086 333.628,324.055C338.97,329.335 350.834,338.916 353.609,341.305C375.686,367.083 386.983,383.046 408.366,411.752C420.223,427.669 431.902,443.668 443.44,459.725C465.396,505.01 486.493,550.673 513.85,593.463C535.659,627.574 560.021,659.567 587.066,689.702C597.93,701.808 609.077,713.214 621.616,723.557C622.655,724.414 624.574,726.013 625.877,726.629C627.592,727.438 629.2,727.607 630.479,727.503C633.86,727.228 636.807,725.67 637.972,721.136C638.254,720.041 638.465,718.297 637.804,716.012C637.237,714.053 635.25,710.065 632.071,704.842C618.791,683.021 583.435,633.928 577.92,625.827C537.969,567.149 498.37,508.785 457.083,451.295C451.417,439.593 445.691,427.922 439.781,416.333L440.808,417.779C448.335,428.315 456.024,438.689 463.837,448.936C507.273,518.967 556.584,585.506 605.313,651.776C607.928,655.334 612.94,656.098 616.497,653.483C620.054,650.867 620.819,645.855 618.203,642.298C612.792,634.939 607.373,627.576 601.962,620.212L602.236,620.177C604.345,619.843 605.964,618.845 607.185,617.437C608.253,616.207 609.315,614.435 609.212,611.759C619.053,625.984 642.275,660.751 662.458,682.781C673.205,694.511 683.623,702.535 690.991,704.106C693.818,704.708 695.855,703.946 697.352,702.993C698.778,702.086 699.906,700.807 700.607,699.082C701.086,697.903 701.438,696.234 701.122,694.215C700.853,692.494 699.611,689.596 698.867,688.175C695.973,682.647 693.077,677.107 689.77,671.816C684.081,662.715 678.147,653.759 671.908,645.026C669.84,642.13 667.754,639.242 665.651,636.366C669.365,636.172 672.425,634.582 674.467,631.931C676.875,628.806 677.979,624.756 677.415,619.88C676.882,615.27 674.654,609.537 671.105,603.367C659.509,583.204 633.393,556.585 628.145,550.99C591.524,511.953 553.883,473.88 520.424,432.313C504.84,403.009 489.488,373.491 473.592,344.054C468.609,334.826 450.255,311.121 433.619,287.405C431.229,282.201 428.847,276.978 426.454,271.743C414.697,246.025 405.387,231.711 403.546,229.599C400.345,225.925 396.836,226.556 395.96,226.695C392.899,227.182 390.392,228.845 389.433,232.678C388.777,235.303 388.791,238.709 389.785,242.738C391.351,249.085 395.573,257.811 401.437,267.626C406.132,275.484 411.905,284.145 417.988,292.869ZM506.064,548.99C512.778,561.119 519.816,573.091 527.331,584.844C544.061,611.013 562.328,635.907 582.195,659.654C573.823,647.768 566.879,638.04 564.695,634.832C545.148,606.123 525.686,577.488 506.064,548.99ZM579.415,522.716C590.231,537.065 601.094,551.388 611.97,565.691C619.736,575.904 627.624,586.108 635.491,596.345C637.57,598.375 639.664,600.382 641.777,602.367C642.291,602.85 650.961,611.905 659.078,617.436C659.549,617.757 660.088,618.082 660.647,618.39C659.857,616.212 658.673,613.843 657.235,611.344C646.271,592.28 621.438,567.227 616.476,561.937C604.169,548.818 591.754,535.802 579.415,522.716ZM512.901,469.023C525.544,490.239 538.414,511.304 551.636,532.129C556.722,538.233 561.816,544.345 566.907,550.471C568.339,552.193 570.412,554.484 572.877,557.187C566.348,546.718 559.992,536.168 553.765,525.543C548.598,518.687 543.506,511.798 538.468,504.906C529.798,493.045 521.306,481.067 512.901,469.023ZM435.878,367.926C440.401,376.775 445.078,385.564 449.996,394.265C458.686,409.641 467.716,424.822 477.023,439.845L477.49,440.46L477.649,440.666C463.581,416.493 449.713,392.198 435.878,367.926Z"/>
    <path d="M687.868,269.583C689.464,266.926 690.876,264.262 692.055,261.61C692.645,260.282 692.918,259.107 692.997,258.089C695.796,252.688 697.539,247.694 697.98,243.339C698.274,240.432 697.241,238.367 695.823,236.835C694.486,235.391 692.284,233.884 688.773,234.199C687.561,234.308 685.192,234.985 682.343,236.462C675.577,239.971 663.259,248.407 662.872,248.734C653.932,256.292 645.074,263.947 636.334,271.734C608.901,296.177 583.653,322.905 558.455,349.599C489.604,422.54 423.221,497.744 356.079,572.211C355.472,572.884 331.654,593.517 321.302,608.567C317.728,613.764 315.679,618.617 315.35,622.256C314.905,627.185 316.641,631.005 320.393,633.653C324,636.199 328.996,635.338 331.542,631.73C333.486,628.977 333.444,625.414 331.708,622.75C332.28,621.499 333.363,619.265 334.485,617.634C344.407,603.209 367.38,583.57 367.962,582.925C400.634,546.689 433.125,510.278 465.806,474.045C439.95,505.379 415.458,537.992 392.326,572.208C390.146,575.432 361.624,613.102 344.414,640.203C338.969,648.778 334.633,656.369 332.409,661.657C331.055,664.874 330.406,667.536 330.292,669.419C330.077,672.988 331.577,675.01 332.847,676.242C333.893,677.257 335.138,678.006 336.613,678.36L336.758,678.584C338.616,681.371 341.591,683.286 346.208,681.938C347.367,681.6 349.357,680.603 351.558,678.664C355.67,675.043 362.848,666.659 366.196,662.954C387.915,638.925 408.523,613.913 430.362,589.998C453.341,564.834 477.406,541.333 502.114,518.66C470.519,555.976 440.966,594.764 415.87,635.831C411.451,643.061 417.162,647.652 417.659,647.978C418.666,648.637 423.228,651.271 427.775,646.929C429.378,645.399 438.861,632.875 442.388,627.956C449.722,617.726 456.926,607.402 464.337,597.227C481.839,573.198 499.361,548.976 517.435,525.287C545.615,492.224 575.363,460.332 604.941,429.021C616.901,418.783 628.857,408.485 640.774,398.04C660.364,380.868 684.444,358.956 703.483,340.629C703.678,340.441 713.273,328.802 717.369,322.553C719.153,319.831 720.03,317.543 720.226,316.466C720.83,313.151 719.607,310.919 718.414,309.513C716.858,307.681 714.379,305.896 710.231,306.839C708.236,307.293 706.109,308.04 703.882,309.05C713.846,298.083 737.594,272.199 751.416,252.426C756.703,244.863 760.566,238.042 762.152,233.042C763.256,229.558 763.399,226.574 762.939,224.262C762.438,221.751 761.054,219.839 758.677,218.619C757.583,218.058 755.524,217.251 752.548,218.013C749.15,218.882 732.358,228.781 719.827,240.118C706.468,252.206 696.737,261.157 687.868,269.583ZM443.827,550.789C440.534,554.74 437.263,558.701 434.014,562.674L437.122,559.443C438.167,558.366 439.213,557.288 440.259,556.211L442.93,553.481C443.036,552.786 443.238,552.094 443.54,551.422L443.827,550.789ZM734.369,248.689C733.07,249.767 731.793,250.869 730.562,251.982C695.457,283.746 685.62,293.669 650,329.92C600.371,380.427 550.088,431.26 502.166,483.967C494.047,495.041 486.372,506.372 479.285,518.031C506.321,492.692 534.209,468.515 562.351,444.411C603.436,396.256 646.625,349.787 688.413,302.319C693.923,296.059 718.408,270.097 734.369,248.689ZM653.672,277.762C651.433,279.726 649.202,281.699 646.978,283.68C619.889,307.816 594.972,334.222 570.09,360.582L564.942,366.047C572.75,358.348 580.661,350.708 588.671,343.125C595.164,336.979 608.211,325.932 622.615,312.904C631.899,302.274 641.225,291.679 650.646,281.163C651.658,280.033 652.666,278.899 653.672,277.762Z"/>
</svg>
