<?xml version="1.0" encoding="UTF-8" standalone="no"?>
<!DOCTYPE svg PUBLIC "-//W3C//DTD SVG 1.1//EN" "http://www.w3.org/Graphics/SVG/1.1/DTD/svg11.dtd">
<svg width="100%" height="100%" viewBox="0 0 1000 1000" version="1.1" xmlns="http://www.w3.org/2000/svg" xmlns:xlink="http://www.w3.org/1999/xlink" xml:space="preserve" xmlns:serif="http://www.serif.com/" style="fill-rule:evenodd;clip-rule:evenodd;stroke-linejoin:round;stroke-miterlimit:2;">
    <path d="M392.049,373.632L392.798,373.606C396.798,373.826 400.798,372.71 400.798,370.04C400.798,369.835 400.794,369.629 400.784,369.42C400.793,369.335 400.798,369.248 400.798,369.16C400.798,362.797 403.819,355.725 405.039,349.625C407.631,336.667 409.432,323.314 415.863,311.779C419.761,308.363 423.761,305.063 427.863,301.885C438.371,296.877 450.117,293.45 462.108,291.68C494.711,286.866 529.738,294.241 547.886,317.832C549.159,319.487 550.303,321.126 551.328,322.754C551.593,327.088 551.492,331.594 551.103,336.213C549.609,353.945 543.78,373.277 536.591,391.762C536.338,392.412 536.082,393.061 535.822,393.708C531.435,398.584 527.247,403.436 523.578,408.328C516.378,417.927 510.522,427.954 503.221,437.195C502.442,437.011 501.648,436.943 500.857,436.963C498.771,437.015 495.434,437.793 492.554,442.09C491.486,443.685 490.508,445.568 489.622,447.711C486.367,449.33 482.985,450.862 479.415,452.35C476.495,453.567 468.052,456.233 464.433,458.054C461.129,459.717 459.6,462.003 459.097,463.17C458.262,465.107 458.242,466.946 458.707,468.643C459.085,470.021 459.803,471.54 461.338,472.8C461.685,474.596 462.978,481.717 463.139,487.971C463.798,513.658 459.244,554.959 457.893,563.063C456.039,574.186 454.267,584.758 454.267,596.035C454.267,597.353 454.739,600.132 455.285,601.486C456.043,603.364 457.192,604.51 458.01,605.14C460.196,606.827 462.501,607.134 464.714,606.647C466.334,606.291 468.7,605.454 470.302,602.25L470.491,601.848C471.647,601.945 472.741,601.779 473.774,601.418C473.685,603.064 473.688,604.554 473.886,605.56C474.022,606.247 474.208,606.875 474.435,607.447C474.318,608.031 474.222,608.573 474.155,609.055C473.792,611.659 474.111,613.652 474.478,614.735C475.793,618.608 478.532,620.129 481.555,620.439C483.082,620.596 485.954,620.595 489.028,617.52C490.69,615.858 492.221,613.493 493.506,610.46C493.669,610.805 493.838,611.13 494.013,611.435C496.709,616.153 500.229,617.018 502.616,617.045C505.357,617.076 508.83,615.908 511.227,611.625C512.656,609.073 514.064,603.878 515.024,597.765C516.871,586.012 517.719,570.407 517.731,570.238C519.031,552.47 518.632,534.693 518.632,516.892C518.632,514.349 518.66,511.406 518.706,508.37C519.203,502.107 519.511,495.861 519.511,489.632C519.511,485.742 519.216,483.918 519.143,483.655C518.699,482.061 517.996,480.93 517.218,480.119L517.777,479.597C518.015,479.367 518.252,479.138 518.489,478.909L518.792,478.606C531.049,470.183 543.101,461.928 547.694,457.717C572.918,434.596 595.297,393.94 605.341,360.937C620.723,310.399 590.618,243.37 534.487,236.353C528.435,235.597 522.16,235.501 515.765,235.994C481.845,228.426 442.374,242.572 403.577,274.14C391.701,283.803 372.481,299.775 359.846,317.245C350.376,330.339 344.724,344.377 346.566,357.456C346.976,360.369 348.91,362.694 351.449,363.739C351.023,367.011 352.666,370.292 355.699,371.865C359.243,373.703 363.599,372.647 365.908,369.391C365.908,369.391 371.519,361.473 377.477,353.504L377.588,353.74C379.193,357.035 381.183,360.484 382.77,363.84C383.812,366.044 384.798,368.122 384.798,370.04C384.798,372.543 388.313,373.68 392.049,373.632ZM471.427,460.31C471.072,460.064 470.678,459.832 470.241,459.614C470.639,459.812 471.036,460.043 471.427,460.31ZM582.472,376.958C575.477,390.667 565.808,403.76 555.477,415.311C553.003,421.37 549.577,429.041 545.583,437.071C560.343,420.569 573.431,398.318 582.472,376.958ZM514.895,262.095C532.902,266.238 545.331,274.061 553.603,284.096C561.32,293.458 565.509,304.877 566.915,317.589C571.265,325.265 573.621,332.713 574.528,340.063C576.22,334.298 576.877,328.251 576.081,321.839C575.657,320.289 575.15,318.749 574.555,317.219C568.15,300.748 560.578,287.463 552.009,277.19C544.631,270.008 536.559,265.595 527.884,263.546C523.655,262.548 519.319,262.084 514.895,262.095ZM382.253,315.147C378.863,318.844 375.655,322.689 372.811,326.621C371.094,328.996 369.497,331.394 368.09,333.806C370.016,332.574 372.178,331.794 374.504,331.31L375.87,329.691C376.38,329.095 376.89,328.5 377.401,327.905L378.527,326.612C379.744,324.216 381.099,321.891 382.585,319.639C382.331,318.12 382.207,316.619 382.253,315.147ZM562.567,264.964L563.461,266.001C571.905,274.316 579.607,285.555 586.303,300.286C589.381,307.059 591.232,313.531 592.053,319.74C592.479,321.543 592.823,323.353 593.086,325.172C592.055,313.036 588.594,300.968 583.018,290.198C577.904,280.319 570.982,271.514 562.45,264.832L562.567,264.964ZM419.064,282.283C418.465,282.749 417.866,283.214 417.268,283.68L415.698,284.923L417.075,284.26L417.438,284.089C418.234,283.277 419.044,282.471 419.864,281.673L419.064,282.283ZM500.963,275.89C509.822,277.272 518.377,279.577 526.336,282.832C519.676,279.583 511.515,277.261 501.674,275.966L500.963,275.89Z"/>
    <path d="M478.017,664.932C477.441,665.014 476.868,665.113 476.3,665.226C464.532,667.575 454.281,676.706 447.879,688.498C441.723,699.834 439.198,713.447 441.645,724.678C443.505,733.211 448.098,740.473 455.769,745.075C463.012,749.421 471.377,749.989 479.901,747.492C490.684,744.333 501.844,735.983 510.268,725.513C518.779,714.934 524.399,702.274 524.717,691.184C524.969,682.412 522.143,674.472 515.521,668.452C503.818,657.813 490.188,658.119 478.017,664.932ZM508.722,689.438C508.65,690.026 508.543,690.635 508.395,691.263L508.538,691.515L508.666,691.764C508.728,690.977 508.748,690.2 508.722,689.438ZM482.788,680.626C481.734,681.392 480.698,682.238 479.687,683.149C482.292,682.229 484.957,681.662 487.628,681.501L487.664,681.475C486.003,680.939 484.375,680.66 482.788,680.626Z"/>
</svg>
