<?xml version="1.0" encoding="UTF-8" standalone="no"?>
<!DOCTYPE svg PUBLIC "-//W3C//DTD SVG 1.1//EN" "http://www.w3.org/Graphics/SVG/1.1/DTD/svg11.dtd">
<svg width="100%" height="100%" viewBox="0 0 1000 1000" version="1.1" xmlns="http://www.w3.org/2000/svg" xmlns:xlink="http://www.w3.org/1999/xlink" xml:space="preserve" xmlns:serif="http://www.serif.com/" style="fill-rule:evenodd;clip-rule:evenodd;stroke-linejoin:round;stroke-miterlimit:2;">
    <path d="M652.024,508.088C651.861,508.416 651.703,508.756 651.549,509.11C649.806,513.129 647.891,519.954 645.912,528.245C643.455,529.509 641.726,532.013 641.58,534.962C641.58,534.962 641.479,537.336 641.514,539.438C641.425,542.832 641.185,547.887 640.562,552.862L639.977,555.732L638.58,562.69C638.35,563.416 638.098,564.099 637.827,564.727C634.662,572.067 628.403,576.951 622.851,582.421C599.796,605.135 577.818,624.297 552.122,636.084C533.406,640.755 513.188,642.191 492.479,640.456C487.156,637.701 481.98,634.471 476.848,631.134C465.223,623.574 453.838,615.439 441.898,609.885C411.22,595.617 384.294,585.698 359.741,561.337C349.72,551.394 340.405,541.818 328.645,533.979C326.991,532.876 325.234,531.691 323.559,530.555C323.886,527.357 322.251,524.142 319.213,522.605C314.853,520.398 311.693,521.353 309.725,522.456C309.391,522.644 309.066,522.851 308.755,523.082C307.865,523.23 307.138,523.515 306.547,523.811C305.292,524.439 298.046,531.176 305.027,537.16L305.135,537.31C305.712,538.166 306.42,539.288 307.239,540.641C309.473,546.766 313.082,554.224 314.172,556.871C316.179,561.745 318.102,566.76 320.055,571.812C319.921,571.975 319.796,572.142 319.677,572.31C318.394,574.124 317.25,577.198 318.944,581.203C320.109,583.956 325.151,589.688 329.202,593.914C333.493,603.163 338.487,612.003 344.937,619.743C378.545,660.072 441.918,687.184 495.887,689.202C525.941,697.533 562.578,696.246 593.346,684.197C625.285,671.69 650.872,647.741 657.442,611.532C658.469,605.869 659.155,600.286 659.57,594.751C666.944,581.176 672.725,567.214 675.828,553.88C678.433,542.687 677.484,528.731 673.867,517.88C673.549,516.924 673.195,515.981 672.819,515.046C672.03,510.37 671.11,507.385 670.245,505.802C669.68,504.768 669.073,503.913 668.436,503.213C668.271,501.946 668.065,500.389 668.017,500.139C666.865,494.132 661.593,493.676 660.782,493.611C660.373,493.578 652.122,493.578 652.122,501.943C652.122,504.017 652.09,506.068 652.024,508.088ZM597.389,643.65C588.241,648.095 578.765,651.78 569.248,654.688C549.893,660.602 531.358,666.917 511.277,663.749C505.411,664.384 499.343,664.71 493.044,664.71C486.655,664.71 480.385,664.431 474.223,663.882L475.04,664.266C490.715,666.731 507.573,667.177 527.339,667.177C534.68,667.177 541.618,667.049 548.239,666.537C565.619,661.625 582.872,654.039 597.389,643.65ZM626.478,642.007C624.56,644.195 622.634,646.319 620.705,648.369C622.745,646.355 624.674,644.235 626.478,642.007ZM338.395,562.731C343.607,571.566 349.288,580.802 354.884,588.907C377.006,607.174 402.713,615.181 429.129,625.518C435.974,628.196 442.878,630.534 449.803,632.527C444.981,629.505 440.121,626.705 435.15,624.393C402.706,609.302 374.439,598.459 348.471,572.695C345.065,569.315 341.757,565.97 338.395,562.731Z"/>
    <path d="M410.881,364.139C409.97,364.558 409.048,365.021 408.114,365.53C380.471,380.6 379.705,410.992 393.451,426.751C395.278,430.106 397.838,432.85 401.189,434.779C401.59,435.59 402.012,436.372 402.453,437.122C405.861,442.922 410.426,446.955 415.709,448.548C421.13,450.181 427.69,449.58 435.21,444.296C443.47,438.491 449.081,429.399 451.993,419.25C460.468,405.337 458.896,385.98 450.6,373.267C445.755,365.842 438.789,360.743 430.693,359.507C425.239,358.674 419.173,359.539 412.75,362.994C412.13,363.328 411.506,363.71 410.881,364.139ZM429.513,401.024L429.436,401.089C428.809,401.593 428.266,402.265 427.79,403.008C426.656,404.778 425.909,406.967 425.887,409.041C425.881,409.658 425.988,410.262 426.251,410.779C427.794,408.089 428.941,405.252 429.4,402.677C429.487,402.19 429.511,401.554 429.513,401.024Z"/>
    <path d="M555.935,367.596C554.397,368.399 552.857,369.498 551.339,370.91C545.009,376.803 538.355,389.597 535.293,403.197C533.236,412.335 532.787,421.774 534.678,429.597C536.974,439.092 542.494,446.44 551.995,449.711C557.655,451.66 563.419,450.918 568.879,447.851C575.068,444.374 580.994,437.482 585.315,428.808C587.518,424.386 589.31,419.515 590.566,414.501C591.141,413.477 591.662,412.438 592.124,411.391C595.718,403.251 595.946,394.804 591.521,388.037C589.371,378.52 584.127,370.632 575.203,366.17C568.117,362.627 561.595,363.607 555.935,367.596ZM576.486,395.137L576.316,395.006C575.28,394.262 574.4,393.75 573.504,393.888C573.084,393.952 572.699,394.118 572.334,394.354C573.845,396.236 575.363,399.055 576.482,402.529C576.669,400.44 576.708,398.37 576.583,396.357L576.486,395.137Z"/>
</svg>
