<?xml version="1.0" encoding="UTF-8" standalone="no"?>
<!DOCTYPE svg PUBLIC "-//W3C//DTD SVG 1.1//EN" "http://www.w3.org/Graphics/SVG/1.1/DTD/svg11.dtd">
<svg width="100%" height="100%" viewBox="0 0 1000 1000" version="1.1" xmlns="http://www.w3.org/2000/svg" xmlns:xlink="http://www.w3.org/1999/xlink" xml:space="preserve" xmlns:serif="http://www.serif.com/" style="fill-rule:evenodd;clip-rule:evenodd;stroke-linejoin:round;stroke-miterlimit:2;">
    <path d="M705.548,246.048C701.357,249.792 697.216,253.837 693.105,258.084C691.48,259.587 689.551,261.336 687.151,263.469C660.479,287.178 637.084,313.724 614.384,341.202L610.316,346.117C608.007,347.918 605.552,349.799 604.075,351.106C602.419,352.572 601.441,353.906 601.044,354.629C600.247,356.078 599.941,357.41 599.932,358.6C552.035,416.044 502.901,472.789 457.658,532.275C452.3,539.32 442.805,557.312 432.463,572.138C431.938,572.891 431.413,573.637 430.887,574.371C430.7,573.929 430.508,573.527 430.311,573.19C429.243,571.355 427.888,570.189 426.681,569.508C424.758,568.421 422.743,568.131 420.668,568.563C419.258,568.857 417.679,569.513 416.16,571.032C415.648,571.543 415.213,572.09 414.854,572.671C412.467,559.174 411.171,544.209 410.232,540.454C409.475,537.428 402.94,525.971 399.609,518.222C399.235,516.985 398.842,515.751 398.428,514.523C398.636,513.502 398.647,512.424 398.427,511.338C398.015,509.309 396.866,507.616 395.316,506.48C394.084,503.721 392.698,501.07 391.118,498.601C390.915,497.391 390.623,496.414 390.28,495.728C390.138,495.443 388.599,492.878 385.689,491.806C385.346,491.481 385.015,491.195 384.71,490.969C383.001,489.706 381.304,489.225 380.006,489.103C378.077,488.921 376.368,489.362 374.868,490.263C373.352,491.174 371.747,492.656 371.007,495.461L370.858,495.522L363.043,498.718C362.529,498.68 360.792,498.546 359.818,498.417C357.443,498.101 355.169,497.925 353.458,498.132C350.233,498.522 347.918,499.987 346.395,501.95C345.21,503.476 344.347,505.439 344.347,508.099C344.347,511.059 345.419,515.643 347.729,521.336C351.628,530.947 359.133,544.736 368.237,559.654C368.408,560.413 368.845,561.846 369.679,563.356C370.755,565.307 372.537,567.438 373.563,568.228C383.128,583.369 393.883,599.075 403.745,612.31C408.46,624.662 414.979,635.202 424.051,642.006C428.843,645.599 432.818,646.694 435.789,646.671C439.983,648.49 444.792,648.548 450.046,646.656C455.784,644.59 462.414,639.845 469.206,633.237C492.225,610.844 519.043,566.183 524.323,558.263C575.218,481.92 628.313,406.475 684.064,333.57C688.315,328.011 717.72,294.978 734.985,270.997C740.565,263.245 744.912,256.336 747.051,251.4C748.452,248.168 749.023,245.428 749.023,243.412C749.023,239.864 747.358,238.049 746.132,236.999C744.358,235.481 742.141,234.676 739.377,235.166C738.347,235.348 736.779,235.85 735.182,237.171C734.812,237.478 734.128,238.156 733.549,238.747C733.259,237.295 732.583,236.074 731.647,235.038C731.259,234.608 727.543,230.475 721.973,233.316C720.971,233.828 714.159,238.068 711.887,240.142C709.264,242.536 707.235,244.435 705.548,246.048ZM508.952,552.591C508.383,552.795 507.823,552.918 507.283,552.98C501.191,561.536 495.111,570.11 489.012,578.687C486.015,582.902 472.875,605.206 460.109,615.658C454.882,619.937 449.531,622.284 444.561,622.513C445.333,625.656 445.891,628.528 446.143,630.955L446.273,630.888C449.934,629.062 453.893,625.813 458.05,621.769C478.068,602.294 500.935,565.25 508.952,552.591ZM422.262,604.776C421.991,604.908 421.72,605.031 421.45,605.146C420.608,605.508 419.778,605.772 418.96,605.939C421.233,608.938 423.444,611.78 425.567,614.423C424.516,611.216 423.388,607.955 422.262,604.776ZM480.648,528.611C477.211,533.041 473.791,537.493 470.393,541.961C465.11,548.907 455.784,566.672 445.587,581.291C442.62,585.544 439.543,589.518 436.45,592.994C436.85,594.413 437.283,595.834 437.762,597.227L437.959,597.789C448.059,578.651 454.721,568.428 466.982,549.479C471.496,542.503 476.05,535.544 480.648,528.611ZM364.447,514.65C363.738,514.708 363.003,514.728 362.249,514.711C362.871,516.213 363.622,517.879 364.457,519.693L364.741,520.297C364.273,518.228 364.186,516.457 364.331,515.356C364.363,515.113 364.401,514.878 364.447,514.65ZM625.572,358.103C624.033,359.258 622.54,360.315 621.101,361.266C621.262,361.519 621.411,361.785 621.551,362.065C621.647,362.256 621.863,362.735 622.034,363.441L622.989,362.01L625.572,358.103ZM713.788,272.597C711.155,274.394 708.35,276.474 704.852,279.425C701.751,282.041 698.016,285.639 693.834,289.892C693.943,290.756 693.919,291.73 693.705,292.824C693.555,293.592 693.044,295.144 692.029,297.097C691.071,298.939 689.522,301.584 687.912,304.254C695.876,294.85 705.421,283.399 713.788,272.597Z"/>
</svg>
