<?xml version="1.0" encoding="UTF-8" standalone="no"?>
<!DOCTYPE svg PUBLIC "-//W3C//DTD SVG 1.1//EN" "http://www.w3.org/Graphics/SVG/1.1/DTD/svg11.dtd">
<svg width="100%" height="100%" viewBox="0 0 1000 1000" version="1.1" xmlns="http://www.w3.org/2000/svg" xmlns:xlink="http://www.w3.org/1999/xlink" xml:space="preserve" xmlns:serif="http://www.serif.com/" style="fill-rule:evenodd;clip-rule:evenodd;stroke-linejoin:round;stroke-miterlimit:2;">
    <g transform="matrix(1,0,0,1,-68.4013,-22.6932)">
        <path d="M448.006,121.588C444.557,121.169 440.918,121.661 437.29,122.791C432.313,124.341 427.339,127.209 423.479,128.612C408.102,134.204 393.741,140.481 378.893,147.333C333.114,168.462 292.976,199.574 261.645,239.341C175.753,348.357 149.178,518.335 179.157,651.098C195.645,724.115 248.729,775.369 306.198,818.742C393.809,884.863 443.762,903.626 551.984,915.281C588.702,919.235 627.277,926.437 664.334,923.211C747.059,916.01 853.832,842.534 904.619,780.491C944.321,731.989 964.533,657.946 968.711,578.502C974.927,460.3 945.781,330.314 895.362,256.488C866.191,213.775 824.634,174.624 778.217,151.415C674.045,99.329 514.116,124.947 410.332,162.012C406.174,163.497 404.004,168.079 405.489,172.237C406.974,176.395 411.556,178.565 415.714,177.08C515.971,141.274 670.43,115.41 771.061,165.726C815.107,187.749 854.469,224.981 882.149,265.511C931.007,337.05 958.757,463.122 952.733,577.661C948.751,653.377 930.077,724.131 892.238,770.356C843.707,829.643 741.996,900.39 662.946,907.272C626.908,910.409 589.406,903.219 553.697,899.373C448.968,888.095 400.619,869.958 315.837,805.971C261.366,764.861 210.392,716.782 194.764,647.574C165.768,519.162 191.136,354.686 274.213,249.243C303.974,211.469 342.113,181.931 385.598,161.861C400.035,155.198 413.995,149.086 428.947,143.649C432.128,142.492 436.071,140.32 440.144,138.739C442.34,137.886 444.542,136.896 446.547,137.565C450.249,138.799 452.576,138.083 453.202,137.847C454.719,137.274 461.66,133.305 456.778,125.22C454.922,122.145 451.319,120.767 448.006,121.588Z"/>
    </g>
</svg>
