<?xml version="1.0" encoding="UTF-8" standalone="no"?>
<!DOCTYPE svg PUBLIC "-//W3C//DTD SVG 1.1//EN" "http://www.w3.org/Graphics/SVG/1.1/DTD/svg11.dtd">
<svg width="100%" height="100%" viewBox="0 0 1000 1000" version="1.1" xmlns="http://www.w3.org/2000/svg" xmlns:xlink="http://www.w3.org/1999/xlink" xml:space="preserve" xmlns:serif="http://www.serif.com/" style="fill-rule:evenodd;clip-rule:evenodd;stroke-linejoin:round;stroke-miterlimit:2;">
    <path d="M900.733,70.014C900.81,71.146 900.863,72.441 900.821,73.528C900.496,81.826 898.573,91.904 898.375,94.077C894.67,134.84 888.707,175.426 884.319,216.175C867.596,371.456 859.112,527.637 855.256,683.773C854.793,702.545 863.128,755.448 859.176,791.471C858.407,798.478 857.176,804.791 855.202,809.934C853.69,813.873 851.865,817.076 849.143,818.891C812.396,843.389 747.251,851.562 675.814,852.223C566.326,853.236 442.165,835.867 378.924,827.292C360.924,824.852 294.055,824.84 250.57,816.727C240.181,814.788 231.208,812.427 224.833,809.332C221.931,807.922 219.617,806.567 218.51,804.723C216.644,801.613 216.425,794.679 216.005,786.81C215.203,771.815 215.059,753.947 212.256,744.913C178.226,635.262 188.508,511.069 187.113,398.08C186.453,344.636 182.168,291.238 180.073,237.823C179.542,224.288 179.361,213.276 177.351,200.005C175.812,189.851 175.032,189.839 172.409,181.455C172.763,180.793 173.027,180.069 173.184,179.296C174.064,174.969 171.267,170.742 166.94,169.861C163.945,169.252 161.757,169.993 160.11,171.016C158.256,172.168 156.847,173.923 156.159,176.299C155.524,178.489 155.848,181.976 156.502,184.156C159.271,193.386 160.06,192.691 161.531,202.402C163.448,215.051 163.579,225.55 164.085,238.45C166.174,291.722 170.456,344.977 171.114,398.278C172.528,512.757 162.496,638.559 196.975,749.655C199.516,757.845 199.301,774.071 200.027,787.664C200.626,798.86 202.135,808.53 204.79,812.955C207.183,816.944 211.567,820.676 217.844,823.724C225.234,827.313 235.592,830.208 247.635,832.455C291.388,840.619 358.663,840.692 376.774,843.147C440.503,851.789 565.628,869.243 675.962,868.222C751.074,867.527 819.381,857.962 858.019,832.203C867.37,825.969 873.058,811.652 875.081,793.216C879.082,756.743 870.782,703.174 871.252,684.168C875.096,528.472 883.551,372.732 900.227,217.888C904.625,177.051 910.596,136.377 914.31,95.525C914.598,92.349 917.952,73.746 916.359,64.927C915.415,59.706 912.719,56.508 909.92,55.109C905.995,53.146 899.125,53.347 891.27,56.217C879.245,60.611 863.379,70.671 858.317,72.189C820.237,83.613 779.564,88.973 740.876,98.463C658.519,118.664 570.949,124.527 486.841,134.34C410.348,143.264 331.629,156.156 261.346,115.994C257.512,113.804 252.621,115.138 250.431,118.971C248.24,122.805 249.574,127.696 253.408,129.886C326.774,171.81 408.847,159.548 488.695,150.232C573.455,140.344 661.693,134.359 744.688,114.002C783.637,104.448 824.577,99.016 862.915,87.514C867.451,86.153 880.355,78.37 891.853,73.254C895.039,71.836 898.09,70.642 900.733,70.014ZM166.376,185.633C165.524,185.746 164.639,185.721 163.749,185.54C164.741,185.742 165.61,185.758 166.376,185.633Z"/>
</svg>
