<?xml version="1.0" encoding="UTF-8" standalone="no"?>
<!DOCTYPE svg PUBLIC "-//W3C//DTD SVG 1.1//EN" "http://www.w3.org/Graphics/SVG/1.1/DTD/svg11.dtd">
<svg width="100%" height="100%" viewBox="0 0 1000 1000" version="1.1" xmlns="http://www.w3.org/2000/svg" xmlns:xlink="http://www.w3.org/1999/xlink" xml:space="preserve" xmlns:serif="http://www.serif.com/" style="fill-rule:evenodd;clip-rule:evenodd;stroke-linejoin:round;stroke-miterlimit:2;">
    <path d="M521.026,254.844C520.665,254.426 517.698,250.971 514.968,247.409C500.544,228.592 469.68,184.269 457.954,161.01C456.23,157.59 454.699,153.335 454.234,151.997C454.959,148.85 453.721,145.441 450.876,143.544C447.202,141.095 442.231,142.089 439.782,145.763C438.636,147.481 437.726,150.142 438.243,153.81C438.688,156.962 440.537,162.003 443.667,168.213C455.731,192.143 487.429,237.783 502.269,257.143C506.569,262.753 509.773,266.353 510.964,267.289C523.313,276.994 538.32,282.882 550.178,293.372C579.565,319.368 594.916,356.52 619.652,386.557C639.189,410.28 662.805,430.275 681.661,454.677C708.672,489.632 728.013,530.062 750.898,567.658C766.005,592.477 784.925,614.968 800.157,639.79C824.588,679.604 847.959,720.211 873.232,759.524C880.346,770.59 887.697,780.907 894.057,792.469C895.692,795.442 897.082,798.437 898.436,801.439C893.596,800.141 888.571,798.349 883.544,796.464C872.452,792.305 861.383,787.594 852.004,785.25C830.237,779.808 807.597,779.876 785.681,775.493C761.75,770.707 739.509,758.515 714.833,755.184C633.678,744.23 550.271,750.545 468.939,754.241C402.741,757.25 337.297,754.892 271.789,766.67C217.855,776.368 169.617,780.257 115.004,773.637C111.932,773.265 98.737,772.706 88.066,770.469C85.691,769.971 82.848,768.951 80.936,768.204C88.409,749.985 119.549,694.361 122.076,689.307C172.274,588.91 225.219,492.902 283.556,397.063C322.323,333.375 359.315,268.55 395.401,203.317C399.849,195.277 422.304,150.872 425,145.537C426.718,144.595 428.095,143.021 428.751,141.012C430.12,136.815 427.824,132.295 423.626,130.925C421.77,130.32 419.536,130.212 417.047,131.423C415.495,132.178 412.68,134.673 409.867,139.117C401.546,152.265 385.758,187.695 381.401,195.572C345.421,260.611 308.541,325.244 269.889,388.743C211.319,484.965 158.164,581.355 107.765,682.151C105.39,686.901 78.137,735.753 68.145,757.556C65.737,762.81 64.296,766.812 63.959,768.774C63.588,770.934 63.903,772.539 64.243,773.557C65.053,775.987 66.712,778.326 69.38,780.285C71.692,781.982 75.006,783.497 78.945,784.671C90.745,788.189 109.255,789.057 113.079,789.521C169.347,796.341 219.051,792.41 274.621,782.418C339.427,770.765 404.176,773.202 469.665,770.225C550.05,766.571 632.484,760.214 712.693,771.041C737.032,774.326 758.938,786.461 782.543,791.182C804.211,795.516 826.603,795.392 848.123,800.772C858.88,803.461 871.932,809.49 884.595,813.854C894.097,817.129 903.422,819.477 911.619,819.477C915.746,819.477 918.296,817.455 919.428,813.652C919.707,812.714 919.92,811.404 919.649,809.786C919.399,808.302 917.369,804.209 917.015,803.503C913.885,797.241 911.486,790.958 908.076,784.759C901.538,772.871 894.005,762.249 886.691,750.872C861.479,711.653 838.167,671.14 813.794,631.422C798.572,606.616 779.662,584.142 764.565,559.339C741.374,521.239 721.694,480.317 694.322,444.893C675.364,420.36 651.644,400.236 632.003,376.386C606.735,345.703 590.798,307.943 560.779,281.388C548.744,270.741 533.583,264.661 521.026,254.844Z"/>
</svg>
