<?xml version="1.0" encoding="UTF-8" standalone="no"?>
<!DOCTYPE svg PUBLIC "-//W3C//DTD SVG 1.1//EN" "http://www.w3.org/Graphics/SVG/1.1/DTD/svg11.dtd">
<svg width="100%" height="100%" viewBox="0 0 1000 1000" version="1.1" xmlns="http://www.w3.org/2000/svg" xmlns:xlink="http://www.w3.org/1999/xlink" xml:space="preserve" xmlns:serif="http://www.serif.com/" style="fill-rule:evenodd;clip-rule:evenodd;stroke-linejoin:round;stroke-miterlimit:2;">
    <path d="M649.72,235.486C624.264,215.782 591.94,199.606 551.672,187.142C513.985,175.477 473.676,168.747 435.229,181.438C358.043,206.915 296.977,281.663 265.326,368.005C233.722,454.221 231.541,551.702 270.623,622.238C312.78,698.323 396.744,737.11 480.729,746.442C532.725,752.219 588.207,755.083 638.308,736.309C748.433,695.042 771.871,597.921 761.607,488.599C754.071,408.332 720.33,300.377 660.702,223.521C620.185,171.298 567.757,133.431 503.799,127.168C478.365,124.678 454.568,130.113 429.836,135.338C425.516,136.251 422.75,140.499 423.662,144.819C424.575,149.139 428.823,151.905 433.143,150.993C456.258,146.109 478.469,140.764 502.24,143.092C561.806,148.925 610.326,184.692 648.061,233.329C648.615,234.043 649.167,234.761 649.72,235.486ZM600.357,647.864L601.139,647.608C665.343,626.006 697.726,553.231 707.119,490.426C720.123,403.468 713.327,333.434 673.441,281.513C646.928,247 605.878,220.669 546.941,202.427C512.399,191.735 475.483,185 440.244,196.631C367.309,220.705 310.256,291.926 280.349,373.512C250.395,455.225 247.577,547.631 284.619,614.483C324.242,685.995 403.559,721.769 482.496,730.539C532.047,736.045 584.948,739.218 632.693,721.326C735.121,682.944 755.223,591.775 745.677,490.094C743.118,462.84 737.453,432.284 728.686,400.898C729.967,429.185 727.873,459.829 722.943,492.793C712.727,561.102 676.072,639.278 606.241,662.773C557.379,679.213 495.337,672.318 441.582,648.088C387.567,623.741 342.109,581.969 326.227,529.774C310.732,478.85 323.903,416.68 354.262,364.172C384.604,311.692 431.994,269.069 483.835,256.564C514.584,249.147 546.983,252.208 577.533,258.868C673.034,279.689 708.205,371.372 699.27,463.407C692.013,538.154 655.475,612.406 600.357,647.864ZM443.515,609.289C474.842,639.225 510.649,661.9 556.982,649.847C628.062,631.358 675.136,546.407 683.344,461.861C691.485,378.006 661.138,293.471 574.125,274.501C545.907,268.349 515.988,265.267 487.587,272.118C482.92,273.244 478.295,274.638 473.72,276.288C476.451,275.582 479.224,274.963 482.041,274.429C523.762,266.536 557.173,273.491 582.787,289.795C620.964,314.093 642.02,359.618 646.66,409.934C654.302,492.811 617.219,587.92 543.646,618.897C511.182,632.566 475.281,626.691 443.515,609.289ZM365.992,375.923C339.415,423.638 327.581,479.257 341.534,525.116C355.844,572.146 396.718,609.524 445.08,632.087C434.374,623.041 424.194,612.949 414.392,602.535C354.376,538.768 330.836,453.666 365.992,375.923ZM447.705,445.986C447.624,447.52 447.688,449.143 447.848,450.803C448.72,459.893 452.453,470.031 455.593,474.439C464.125,486.418 476.428,487.967 488.596,484.255C509.503,477.878 530.35,457.322 536.527,440.298C557.111,383.567 505.028,324.88 447.503,350.767C426.282,360.316 408.908,382.633 397.562,402.174C383.82,425.84 369.358,450.693 370.368,478.967C371.658,515.075 395.768,553.897 428.415,580.007C460.58,605.732 501.325,619.356 537.437,604.151C605.061,575.679 637.751,487.579 630.727,411.403C626.567,366.288 608.426,325.08 574.196,303.292C551.539,288.872 521.919,283.169 485.016,290.151C447.386,297.27 418.936,321.932 397.608,352.621C381.868,375.271 372.292,399.038 368.128,422.999C372.825,413.116 378.275,403.526 383.725,394.14C396.618,371.935 416.823,347.027 440.937,336.176C511.883,304.25 576.953,375.789 551.568,445.755C544.033,466.522 518.768,491.78 493.264,499.559C474.492,505.285 455.723,502.202 442.56,483.721C438.376,477.847 433.083,464.444 431.921,452.331C430.984,442.565 433.006,433.714 438.144,428.576C439.781,426.938 441.548,426.161 443.298,425.846C445.512,425.448 447.912,425.799 450.309,427.241C451.892,428.193 455.33,431.614 455.969,432.257C459.699,433.911 461.625,438.17 460.299,442.114C458.893,446.299 454.353,448.555 450.167,447.148C449.353,446.874 448.525,446.486 447.705,445.986Z" style="fill:rgb(0,6,255);"/>
    <path d="M296.377,736.199C357.5,792.448 474.553,840.778 581.508,847.175C657.771,851.737 728.757,834.871 771.659,785.976C835.329,713.41 847.095,624.066 843.99,529.819C835.403,269.241 643.982,-12.21 357.896,142.59C305.99,170.676 257.236,210.303 219.327,255.484C142.11,347.514 79.527,492.098 139.477,609.327C169.728,668.482 227.741,710.398 296.377,736.199ZM828.367,566.872C818.223,608.26 799.207,648.967 770.255,687.053C724.593,747.122 663.383,768.246 597.488,770.385C573.759,771.155 549.415,769.435 525.005,766.214C465.383,771.209 400.18,766.154 339.815,750.065C402.459,792.682 495.951,826.029 582.463,831.204C653.376,835.446 719.74,820.888 759.632,775.423C812.205,715.506 827.18,643.458 828.367,566.872ZM813.356,424.28C821.121,510.972 795.506,603.277 740.369,666.005C712.165,698.092 679.084,724.951 639.131,740.991C626.21,746.178 612.29,750.645 597.585,754.37C658.529,752.277 715.272,732.945 757.518,677.37C817.493,598.472 832.564,507.826 813.356,424.28ZM290.112,706.87C292.971,710.09 295.906,713.253 298.93,716.373C300.86,718.363 302.865,720.345 304.944,722.317C307.905,723.407 310.876,724.46 313.865,725.483C354.468,739.38 398.407,747.707 441.916,750.785C428.432,747.759 415.134,744.615 402.109,741.53C365.992,732.976 326.629,722.61 290.112,706.87ZM632.39,195.475C630.5,194.484 628.575,193.497 626.638,192.526C550.248,154.219 472.822,142.81 395.906,187.034C361.728,206.685 330.549,235.269 305.539,265.588C209.773,381.68 182.081,553.725 267.973,678.619C310.675,702.246 360.976,715.346 405.797,725.961C444.176,735.051 484.969,744.743 525.583,750.19C565.185,746.705 602.154,738.595 633.17,726.143C670.77,711.047 701.808,685.64 728.352,655.441C784.402,591.674 808.059,495.66 795.406,408.499C789.976,371.096 777.828,335.289 758.577,304.409C744.411,284.741 728.055,266.34 709.736,249.606C691.289,235.171 669.874,223.64 645.39,215.863C607.925,203.962 567.871,198.331 528.964,206.398C495.369,213.365 463.446,228.777 435.067,247.871C394.806,274.959 360.594,313.441 335.063,354.54C307.284,399.258 285.079,448.917 279.116,501.743C271.346,570.586 286.955,617.632 318.244,647.416C365.814,692.697 447.995,698.065 534.285,681.886C561.536,676.776 592.199,671.106 619.782,660.099C646.154,649.575 669.732,634.168 684.054,609.057C707.347,568.214 697.915,522.571 673.158,485.193C661.581,467.712 646.643,451.985 629.956,439.334C639.648,471.015 636.535,510.367 618.074,534.114C600.692,556.472 581.289,569.203 561.911,574.75C522.802,585.943 483.254,567.948 458.437,537.493C433.647,507.072 423.781,464.529 443.033,427.419C452.77,408.649 468.967,398.128 487.776,392.955C508.552,387.24 532.625,388.256 553.638,391.221C567.151,386.537 579.243,386.88 589.73,390.644C600.252,394.421 609.244,401.746 616.386,411.467C643.747,426.683 668.764,449.583 686.498,476.358C714.589,518.771 724.383,570.639 697.952,616.983C681.789,645.323 655.476,663.082 625.712,674.959C597.159,686.354 565.443,692.322 537.234,697.612C445.239,714.861 357.927,707.28 307.213,659.005C272.979,626.418 254.715,575.269 263.217,499.948C269.446,444.763 292.452,392.813 321.472,346.097C348.174,303.112 384.027,262.928 426.136,234.596C456.219,214.355 490.102,198.116 525.715,190.732C561.201,183.373 597.591,186.498 632.39,195.475ZM755.86,272.875C677.748,139.387 540.711,61.862 365.511,156.662C315.344,183.806 268.222,222.102 231.585,265.768C158.108,353.34 96.677,490.491 153.722,602.042C177.336,648.218 219.109,682.956 269.516,707.342C264.966,701.751 260.656,696.052 256.582,690.258C228.262,674.093 203.212,653.45 184.907,626.297C153.819,580.183 146.664,525.819 154.447,471.143C165.906,390.648 209.861,309.508 255.443,254.333C258.255,250.929 263.302,250.449 266.705,253.261C270.109,256.073 270.59,261.12 267.778,264.524C223.849,317.697 181.33,395.822 170.287,473.398C163.069,524.103 169.344,574.589 198.174,617.353C208.907,633.275 222.11,646.779 237.003,658.355C169.373,531 200.277,368.048 293.196,255.406C319.4,223.64 352.121,193.752 387.931,173.163C469.891,126.039 552.411,137.404 633.81,178.223C665.77,194.25 694.673,214.249 719.989,237.273C733.402,247.808 745.35,259.768 755.86,272.875ZM545.195,406.233C531.8,404.648 517.427,404.08 503.872,405.973C484.508,408.678 466.754,416.438 457.235,434.787C441.024,466.036 449.966,501.769 470.84,527.386C491.686,552.968 524.657,568.77 557.508,559.367C574.111,554.615 590.549,543.45 605.442,524.293C622.047,502.934 623.305,466.595 613.054,439.075C610.981,433.512 608.437,428.288 605.414,423.652C592.674,416.938 579.439,412.083 566.279,409.553C562.823,408.888 559.196,408.242 555.446,407.651C555.068,407.808 554.688,407.971 554.307,408.138C551.093,409.554 547.447,408.683 545.195,406.233Z" style="fill:rgb(0,6,255);"/>
</svg>
