<?xml version="1.0" encoding="UTF-8" standalone="no"?>
<!DOCTYPE svg PUBLIC "-//W3C//DTD SVG 1.1//EN" "http://www.w3.org/Graphics/SVG/1.1/DTD/svg11.dtd">
<svg width="100%" height="100%" viewBox="0 0 1000 1000" version="1.1" xmlns="http://www.w3.org/2000/svg" xmlns:xlink="http://www.w3.org/1999/xlink" xml:space="preserve" xmlns:serif="http://www.serif.com/" style="fill-rule:evenodd;clip-rule:evenodd;stroke-linejoin:round;stroke-miterlimit:2;">
    <path d="M152.393,417.711C153.057,416.19 155.004,411.929 157.202,408.808C169.836,390.869 197.151,366.086 200.703,362.401C251.462,309.726 303.737,258.326 358.529,209.832C387.666,184.044 417.626,158.994 448.636,135.469C453.598,131.705 458.589,128.776 462.836,126.605C460.775,130.222 458.183,134.158 455.248,138.286C435.577,165.95 400.84,201.238 394.698,208.238C307.001,308.194 224.228,408.489 163.204,527.307C157.07,539.251 120.807,619.135 115.143,657.616C114.142,664.419 114.091,670.128 114.96,674.302C115.888,678.757 117.881,681.953 120.427,684.023C123.205,686.281 126.829,687.308 131.328,686.412C134.781,685.724 139.244,683.568 144.236,679.942C170.036,661.203 217.898,599.116 226.55,588.892C299.502,502.687 378.702,420.27 469.956,353.172C475.203,349.313 505.974,325.963 529.38,315.09C533.903,312.989 538.107,311.365 541.725,310.576C542.203,310.472 542.66,310.362 543.094,310.265C542.293,313.001 540.953,317.122 539.287,320.617C527.43,345.475 499.496,384.442 493.717,392.98C432.103,484 371.909,576.363 330.001,678.383C325.553,689.21 315.721,710.192 311.913,729.343C308.915,744.417 309.973,758.43 317.413,767.435C321.842,772.796 330.293,774.065 340.926,768.137C365.986,754.168 412.564,698.709 417.013,693.597C477.909,623.631 540.482,555.376 614.973,499.508C620.693,495.218 656.389,469.388 681.376,457.611C686.218,455.33 690.598,453.586 694.186,452.785L694.667,452.692C694.343,454.308 693.857,456.377 693.232,458.073C687.305,474.16 671.977,497.25 670.045,500.343C628.977,566.094 582.282,627.863 544.947,695.953C525.162,732.036 511.202,766.972 508.633,779.567C507.403,785.597 509.029,789.398 510.116,790.757C511.766,792.818 513.9,793.871 516.481,793.97C533.01,794.603 549.033,786.997 563.8,775.693C583.798,760.385 601.557,738.304 615.532,725.313C659.747,684.212 704.024,643.424 752.303,607.058C776.139,589.104 807.919,559.058 838.058,550.867C836.177,555.26 833.404,560.273 830.097,565.647C812.374,594.437 779.628,632.366 772.745,641.583C750.872,670.871 739.069,686.354 718.004,716.742C699.205,743.862 688.028,761.06 671.209,788.678C665.295,798.39 658.94,810 653.843,820.217C647.739,832.452 644.618,841.413 643.66,847.613C642.508,855.074 644.283,859.928 646.863,862.895C649.857,866.338 654.557,868.22 660.974,867.396C669.096,866.354 681.754,860.029 695.522,851.052C724.908,831.892 760.589,801.121 766.23,796.632C775.602,789.174 785.07,781.837 794.615,774.602C803.129,768.147 811.693,761.753 820.403,755.564C823.444,753.403 832.67,745.401 841.873,739.591C840.525,741.621 839.017,743.84 837.356,746.212C817.114,775.112 796.263,803.58 775.831,832.346C765.859,846.385 759.974,859.702 760.108,868.005C760.203,873.913 762.575,878.277 766.791,881.055C771.096,883.892 778.831,885.167 790.807,881.574C795.037,880.305 797.44,875.842 796.171,871.613C794.903,867.384 790.439,864.98 786.21,866.249C782.57,867.341 779.632,867.909 777.297,867.884C776.951,867.881 776.529,867.828 776.185,867.773C776.258,866.816 776.461,864.818 776.944,863.266C778.842,857.179 783.185,849.622 788.875,841.611C809.327,812.817 830.199,784.32 850.461,755.391C861.782,739.227 864.896,732.963 865.493,730.495C866.288,727.218 865.539,725.201 864.828,723.806C864.051,722.284 862.967,721.164 861.63,720.318C857.14,717.478 849.967,717.575 842.037,721.232C830.204,726.689 815.267,739.586 811.135,742.521C802.291,748.806 793.595,755.297 784.949,761.851C775.304,769.163 765.737,776.577 756.267,784.113C749.528,789.476 698.934,833.413 669.381,847.781C666.299,849.279 663.491,850.434 661.035,851.093C660.494,851.238 659.844,851.344 659.262,851.418C659.377,846.615 662.367,838.972 668.16,827.36C673.067,817.526 679.182,806.348 684.875,797C701.508,769.686 712.562,752.678 731.154,725.857C752.091,695.653 763.824,680.267 785.564,651.157C792.552,641.801 825.732,603.258 843.722,574.034C848.683,565.974 852.518,558.55 854.565,552.511C856.371,547.179 856.817,542.612 856.167,539.157C855.695,536.646 854.529,534.947 853.162,533.722C851.305,532.057 848.771,531.047 845.546,531.369C843.914,531.532 841.807,532.187 839.646,533.151C838.193,533.799 836.679,534.704 835.533,534.99C803.136,543.095 768.341,574.946 742.676,594.278C693.957,630.976 649.258,672.117 604.638,713.594C590.958,726.311 573.651,748.003 554.074,762.988C545.088,769.868 535.655,775.374 525.823,777.282C526.199,775.973 526.629,774.577 527.103,773.187C532.529,757.283 544.073,730.825 558.976,703.645C596.165,635.821 642.708,574.313 683.615,508.819C686.012,504.983 707.072,472.631 710.54,455.856C712.15,448.07 710.098,442.389 706.505,439.462C704.356,437.711 701.463,436.558 697.787,436.416C694.55,436.291 690.37,437.015 685.57,438.618C660.277,447.065 612.233,481.563 605.373,486.708C529.977,543.255 466.581,612.277 404.944,683.093C401.215,687.378 366.767,728.775 342.118,748.011C338.317,750.978 334.795,753.39 331.698,754.92C330.826,755.35 329.63,755.744 328.827,755.982C325.046,750.142 325.803,741.529 327.606,732.464C331.197,714.406 340.607,694.672 344.801,684.462C386.291,583.459 445.967,492.062 506.967,401.949C512.908,393.172 541.539,353.06 553.728,327.505C558.169,318.194 560.304,310.325 559.856,305.694C559.39,300.889 557.062,297.757 553.605,295.988C550.458,294.378 546.295,293.729 541.319,294.407C536.105,295.117 529.642,297.326 522.639,300.58C498.179,311.942 465.962,336.249 460.477,340.281C368.216,408.121 288.094,491.399 214.337,578.556C206.951,587.284 170.407,634.864 144.516,658.862C140.393,662.684 136.575,665.879 133.222,668.123C132.397,668.674 131.431,669.201 130.567,669.633C130.425,668.453 130.313,667.015 130.374,665.745C130.645,660.138 132.062,652.997 134.174,644.964C144.657,605.097 172.246,544.723 177.437,534.617C237.854,416.98 319.9,317.752 406.726,218.79C412.975,211.667 448.27,175.709 468.287,147.558C473.782,139.83 478.155,132.627 480.683,126.662C482.873,121.497 483.726,116.979 483.429,113.47C483.191,110.674 481.118,105.243 473.435,105.669C468.877,105.921 455.77,109.974 438.965,122.722C407.635,146.49 377.363,171.796 347.925,197.85C292.816,246.625 240.234,298.319 189.182,351.298C184.909,355.733 148.241,389.431 139.009,407.955C134.73,416.542 135.892,423.434 139.765,427.27C142.902,430.377 147.971,430.353 151.078,427.217C153.637,424.633 154.073,420.74 152.393,417.711Z" style="fill:rgb(255,0,198);"/>
    <path d="M480.475,761.909C479.963,762.01 478.85,762.212 478.057,762.226C475.915,762.263 473.434,761.961 470.733,761.454C452.221,757.982 425.062,745.164 418.295,741.856C338.622,702.905 273.177,640.181 207.265,582.117C202.588,577.997 180.921,557.035 161.919,547.853C152.338,543.223 143.168,541.697 136.201,544.19C130.671,546.169 125.967,550.392 123.207,558.192C118.447,571.645 118.545,587.398 121.331,603.425C125.222,625.816 134.296,648.78 140.64,665.862C169.936,744.734 214.824,821.727 267.275,887.517C269.498,890.304 271.739,893.082 273.998,895.847C222.945,841.642 174.016,782.547 136.529,735.834C133.766,732.39 128.727,731.838 125.283,734.602C121.839,737.365 121.287,742.404 124.051,745.848C190.905,829.157 293.886,951.305 380.963,1016.61C386.711,1020.92 390.888,1016.82 391.708,1016C393.047,1014.65 395.113,1011.92 393.565,1007.59C393.306,1006.87 390.368,1002.77 389.053,1001.32C381.54,993.033 373.688,985.053 366.215,976.728C337.136,944.338 306.994,911.669 279.786,877.542C228.373,813.056 184.354,737.6 155.639,660.291C149.579,643.975 140.811,622.073 137.094,600.685C134.807,587.525 134.382,574.576 138.291,563.529C140.904,556.145 147.758,558.78 154.957,562.259C172.512,570.742 192.368,590.317 196.689,594.123C263.661,653.121 330.312,716.652 411.268,756.23C418.554,759.792 447.852,773.441 467.783,777.18C473.951,778.337 479.381,778.533 483.422,777.689C487.816,776.771 491.031,774.679 493.108,771.812C495.83,768.056 497.258,763.294 497.289,757.684C497.324,751.227 495.426,743.375 492.091,734.897C480.592,705.66 451.727,667.555 445.219,657.607C397.183,584.185 347.732,509.701 317.391,426.819C314.906,420.03 303.335,394.885 297.717,371.998C295.981,364.93 294.811,358.102 294.806,352.21C294.804,349.808 294.925,347.589 295.385,345.681C297.338,347.144 299.709,348.943 300.105,349.337C326.443,375.481 344.046,410.379 368.263,438.567C395.668,470.465 478.324,550.857 550.504,583.229C583.577,598.062 614.679,602.617 638.143,590.421C655.319,581.494 659.702,565.14 657.15,546.678C653.948,523.521 639.209,496.893 633.091,483.641C599.475,410.834 558.484,339.89 537.295,262.078C535.157,254.227 529.44,238.524 528.613,224.513C528.29,219.055 528.459,213.807 530.786,210.029C532.662,211.504 535.475,213.835 537.743,216.198C554.139,233.284 577.926,267.462 586.976,279.1C607.87,305.972 666.503,378.439 717.075,421.434C740.094,441.004 761.824,454.339 777.885,456.121C786.089,457.031 791.81,454.918 795.741,451.368C801.067,446.557 803.488,438.035 802.333,427.024C799.036,395.585 767.391,339.163 764.054,332.262C757.857,319.445 751.775,306.572 745.711,293.69C741.319,284.358 732.829,265.999 729.149,256.382C722.935,240.142 717.426,223.552 712.724,206.797C723.887,210.888 733.372,220.478 742.082,231.066C754.665,246.36 765.43,264.094 775.568,275.189C827.448,331.965 870.993,384.2 951.714,378.902C956.12,378.613 959.462,374.801 959.173,370.395C958.883,365.989 955.072,362.647 950.666,362.936C875.353,367.879 835.784,317.368 787.38,264.396C775.27,251.144 762.28,228.362 746.313,211.704C734.243,199.112 720.466,189.97 704.668,188.827C700.354,188.515 697.702,190.421 696.002,193.305C695.075,194.878 694.42,197.233 694.656,200.069C694.857,202.501 695.84,205.764 696.375,207.713C701.41,226.096 707.395,244.303 714.206,262.1C717.994,271.998 726.714,290.9 731.235,300.504C737.322,313.436 743.428,326.36 749.649,339.227C752.807,345.758 783.3,398.938 786.42,428.693C786.735,431.692 786.764,434.387 786.286,436.659C786.044,437.81 785.751,438.83 785.016,439.494C783.864,440.534 782.054,440.485 779.649,440.218C765.721,438.673 747.4,426.214 727.439,409.244C677.726,366.98 620.146,295.694 599.607,269.279C588.953,255.578 558.303,211.684 542.03,198.261C537.558,194.573 533.506,192.86 530.692,192.624C527.672,192.371 525.153,193.22 523.085,194.892C514.798,201.587 511.897,212.881 512.64,225.457C513.539,240.665 519.536,257.76 521.857,266.282C543.279,344.952 584.579,416.739 618.564,490.348C624.258,502.679 638.322,527.321 641.3,548.869C642.869,560.216 641.321,570.738 630.764,576.224C617.938,582.891 602.337,582.819 585.339,578.647C566.924,574.128 547.002,564.752 526.973,552.774C465.47,515.995 403.233,454.718 380.399,428.14C355.909,399.635 338.011,364.42 311.377,337.981C310.179,336.791 303.508,330.598 298.211,328.657C292.729,326.649 288.017,327.854 284.895,331.597C279.245,338.373 277.704,350.096 279.754,363.764C283.67,389.876 299.356,424.095 302.366,432.319C333.127,516.346 383.13,591.93 431.83,666.366C438.103,675.955 466.118,712.57 477.202,740.753C479.309,746.112 480.791,751.108 481.191,755.464C481.422,757.985 481.42,760.215 480.475,761.909Z" style="fill:rgb(255,0,198);"/>
</svg>
